<?xml version="1.0" encoding="UTF-8" standalone="no"?>
<!-- Created with Inkscape (http://www.inkscape.org/) -->

<svg
   xmlns:dc="http://purl.org/dc/elements/1.1/"
   xmlns:cc="http://creativecommons.org/ns#"
   xmlns:rdf="http://www.w3.org/1999/02/22-rdf-syntax-ns#"
   xmlns:svg="http://www.w3.org/2000/svg"
   xmlns="http://www.w3.org/2000/svg"
   xmlns:sodipodi="http://sodipodi.sourceforge.net/DTD/sodipodi-0.dtd"
   xmlns:inkscape="http://www.inkscape.org/namespaces/inkscape"
   width="256"
   height="85"
   viewBox="0 0 67.73333 22.489584"
   version="1.1"
   id="svg8"
   inkscape:version="0.92.4 5da689c313, 2019-01-14"
   sodipodi:docname="logo.svg">
  <defs
     id="defs2" />
  <sodipodi:namedview
     id="base"
     pagecolor="#ffffff"
     bordercolor="#666666"
     borderopacity="1.0"
     inkscape:pageopacity="0.0"
     inkscape:pageshadow="2"
     inkscape:zoom="3.959798"
     inkscape:cx="127.35685"
     inkscape:cy="58.217466"
     inkscape:document-units="px"
     inkscape:current-layer="layer1"
     showgrid="false"
     units="px"
     inkscape:window-width="1916"
     inkscape:window-height="1041"
     inkscape:window-x="3840"
     inkscape:window-y="18"
     inkscape:window-maximized="0" />
  <metadata
     id="metadata5">
    <rdf:RDF>
      <cc:Work
         rdf:about="">
        <dc:format>image/svg+xml</dc:format>
        <dc:type
           rdf:resource="http://purl.org/dc/dcmitype/StillImage" />
        <dc:title></dc:title>
      </cc:Work>
    </rdf:RDF>
  </metadata>
  <g
     inkscape:label="Layer 1"
     inkscape:groupmode="layer"
     id="layer1"
     transform="translate(0,-274.5104)">
    <g
       aria-label="BriefThreat"
       transform="matrix(0.26458372,0,-0.02651211,0.26458306,-13.802162,229.14168)"
       style="font-style:normal;font-weight:normal;font-size:37.33333206px;line-height:1.25;font-family:sans-serif;letter-spacing:0px;word-spacing:0px;fill:#ef5350;fill-opacity:1;stroke:none"
       id="flowRoot3721">
      <path
         d="m 108.0612,214.89128 v 9.97135 h 5.90625 q 2.97135,0 4.39323,-1.22135 1.4401,-1.23959 1.4401,-3.77344 0,-2.55209 -1.4401,-3.75521 -1.42188,-1.22135 -4.39323,-1.22135 z m 0,-11.19271 v 8.20312 h 5.45052 q 2.69791,0 4.01041,-1.0026 1.33073,-1.02084 1.33073,-3.09896 0,-2.0599 -1.33073,-3.08073 -1.3125,-1.02083 -4.01041,-1.02083 z m -3.68229,-3.02604 h 9.40625 q 4.21093,0 6.48958,1.75 2.27864,1.75 2.27864,4.97656 0,2.49739 -1.16666,3.97396 -1.16667,1.47656 -3.42709,1.84114 2.71615,0.58334 4.21094,2.44271 1.51302,1.84115 1.51302,4.61198 0,3.64583 -2.47916,5.63281 -2.47917,1.98698 -7.05469,1.98698 h -9.77083 z"
         style="letter-spacing:-1.50999963px"
         id="path5048" />
      <path
         d="m 140.14755,210.60742 q -0.5651,-0.32812 -1.23958,-0.47396 -0.65625,-0.16406 -1.45834,-0.16406 -2.84375,0 -4.375,1.85938 -1.51302,1.84114 -1.51302,5.30468 v 10.75521 h -3.37239 V 207.472 h 3.37239 v 3.17188 q 1.0573,-1.85938 2.75261,-2.7526 1.69531,-0.91146 4.11979,-0.91146 0.34635,0 0.76562,0.0547 0.41928,0.0365 0.92969,0.12761 z"
         style="letter-spacing:-1.50999963px"
         id="path5050" />
      <path
         d="m 142.19224,207.472 h 3.35417 v 20.41667 h -3.35417 z m 0,-7.94791 h 3.35417 v 4.24739 h -3.35417 z"
         style="letter-spacing:-1.50999963px"
         id="path5052" />
      <path
         d="m 168.49995,216.8418 v 1.64062 h -15.42188 q 0.21875,3.46354 2.07813,5.28646 1.8776,1.80469 5.21354,1.80469 1.93229,0 3.73698,-0.47396 1.82291,-0.47396 3.60937,-1.42188 v 3.17188 q -1.80468,0.76562 -3.70052,1.16666 -1.89583,0.40105 -3.84635,0.40105 -4.88542,0 -7.7474,-2.84375 -2.84375,-2.84375 -2.84375,-7.69271 0,-5.01302 2.69792,-7.94792 2.71615,-2.95312 7.30989,-2.95312 4.1198,0 6.50782,2.66146 2.40625,2.64322 2.40625,7.20052 z m -3.35417,-0.98438 q -0.0365,-2.7526 -1.54948,-4.39323 -1.49479,-1.64062 -3.97396,-1.64062 -2.80729,0 -4.5026,1.58593 -1.67708,1.58594 -1.93229,4.46615 z"
         style="letter-spacing:-1.50999963px"
         id="path5054" />
      <path
         d="m 182.83109,199.52409 v 2.78906 h -3.20833 q -1.80469,0 -2.51562,0.72917 -0.69271,0.72916 -0.69271,2.625 v 1.80468 h 5.52344 v 2.60678 h -5.52344 v 17.80989 h -3.3724 V 210.07878 H 169.8337 V 207.472 h 3.20833 v -1.42187 q 0,-3.40885 1.58594,-4.95833 1.58594,-1.56771 5.03125,-1.56771 z"
         style="font-size:37.33333206px;letter-spacing:4.93000031px;fill:#ef5350;fill-opacity:1"
         id="path5056" />
      <path
         d="m 186.92255,200.67253 h 23.02344 v 3.09895 h -9.66146 v 24.11719 h -3.70052 v -24.11719 h -9.66146 z"
         style="font-size:37.33333206px;letter-spacing:-0.14999996px;fill:#ef5350;fill-opacity:1"
         id="path5058" />
      <path
         d="m 230.19442,215.56575 v 12.32292 h -3.35416 v -12.21354 q 0,-2.89844 -1.13021,-4.33854 -1.13021,-1.44011 -3.39063,-1.44011 -2.71614,0 -4.28385,1.73177 -1.56771,1.73178 -1.56771,4.72136 v 11.53906 h -3.37239 v -28.36458 h 3.37239 v 11.11979 q 1.20313,-1.84115 2.82552,-2.7526 1.64063,-0.91146 3.77344,-0.91146 3.51823,0 5.32292,2.1875 1.80468,2.16927 1.80468,6.39843 z"
         style="letter-spacing:-1.75999975px"
         id="path5060" />
      <path
         d="m 246.99172,210.60742 q -0.56511,-0.32812 -1.23958,-0.47396 -0.65625,-0.16406 -1.45834,-0.16406 -2.84375,0 -4.375,1.85938 -1.51302,1.84114 -1.51302,5.30468 v 10.75521 h -3.37239 V 207.472 h 3.37239 v 3.17188 q 1.05729,-1.85938 2.75261,-2.7526 1.69531,-0.91146 4.11979,-0.91146 0.34635,0 0.76562,0.0547 0.41927,0.0365 0.92969,0.12761 z"
         style="letter-spacing:-1.75999975px"
         id="path5062" />
      <path
         d="m 265.44787,216.8418 v 1.64062 h -15.42188 q 0.21875,3.46354 2.07813,5.28646 1.8776,1.80469 5.21354,1.80469 1.93229,0 3.73698,-0.47396 1.82291,-0.47396 3.60937,-1.42188 v 3.17188 q -1.80469,0.76562 -3.70052,1.16666 -1.89583,0.40105 -3.84635,0.40105 -4.88542,0 -7.7474,-2.84375 -2.84375,-2.84375 -2.84375,-7.69271 0,-5.01302 2.69792,-7.94792 2.71614,-2.95312 7.30989,-2.95312 4.11979,0 6.50782,2.66146 2.40625,2.64322 2.40625,7.20052 z m -3.35417,-0.98438 q -0.0365,-2.7526 -1.54948,-4.39323 -1.49479,-1.64062 -3.97396,-1.64062 -2.80729,0 -4.5026,1.58593 -1.67709,1.58594 -1.93229,4.46615 z"
         style="letter-spacing:-1.75999975px"
         id="path5064" />
      <path
         d="m 278.47173,217.62565 q -4.06511,0 -5.63282,0.92969 -1.56771,0.92969 -1.56771,3.17187 0,1.78646 1.16667,2.84375 1.1849,1.03906 3.20833,1.03906 2.78907,0 4.46615,-1.96874 1.69531,-1.98698 1.69531,-5.26823 v -0.7474 z m 6.6901,-1.38542 v 11.64844 h -3.35417 v -3.09896 q -1.14844,1.85938 -2.86198,2.75261 -1.71354,0.875 -4.1927,0.875 -3.13542,0 -4.9948,-1.75 -1.84114,-1.76823 -1.84114,-4.72136 0,-3.44531 2.29687,-5.19531 2.31511,-1.75 6.89063,-1.75 h 4.70312 v -0.32812 q 0,-2.31511 -1.53125,-3.57292 -1.51302,-1.27604 -4.26562,-1.27604 -1.75,0 -3.40886,0.41927 -1.65885,0.41927 -3.1901,1.25781 v -3.09896 q 1.84115,-0.71094 3.57292,-1.05729 1.73177,-0.36458 3.37239,-0.36458 4.42969,0 6.61719,2.29687 2.1875,2.29688 2.1875,6.96354 z"
         style="letter-spacing:-1.75999975px"
         id="path5066" />
      <path
         d="m 293.64661,201.67513 v 5.79687 h 6.90885 v 2.60678 h -6.90885 v 11.08333 q 0,2.49739 0.67448,3.20833 0.6927,0.71094 2.78906,0.71094 h 3.44531 v 2.80729 h -3.44531 q -3.88281,0 -5.35938,-1.4401 -1.47656,-1.45834 -1.47656,-5.28646 v -11.08333 h -2.46094 V 207.472 h 2.46094 v -5.79687 z"
         style="letter-spacing:-1.75999975px"
         id="path5068" />
    </g>
    <rect
       style="fill:none;fill-opacity:1;stroke:#ef5350;stroke-width:0.41163942;stroke-miterlimit:4;stroke-dasharray:none;stroke-opacity:1"
       id="rect4940"
       width="63.746628"
       height="17.407402"
       x="1.9917575"
       y="277.0824"
       ry="2.1721573" />
  </g>
</svg>
